# xmcd
#
# Track frame offsets:
# 150
# 18649
# 32165
# 46109
# 57077
# 68867
# 86243
# 100184
# 117328
# 134170
# 149628
# 164428
#
# Disc length: 2470 seconds
#
#
# Revision: 0
# Processed by: cddbd v1.5.2PL0 Copyright (c) Steve Scherf et al.
# Submitted via: FreeRIP 2.951 
#
DISCID=b209a40c
DTITLE=Coyote Smile - Steeltown
DYEAR=2005
DGENRE=Country
TTITLE0=Everytime I hear that song (the jukebox's playing)
TTITLE1=Good kind of life
TTITLE2=She don't love nobody
TTITLE3=Without love
TTITLE4=Hearts of stone
TTITLE5=After she left
TTITLE6=This love ain't for real
TTITLE7=Do you know how it feels
TTITLE8=Sittin' and Thinking
TTITLE9=California cottonfields
TTITLE10=Everybody sang
TTITLE11=He'll have to go
EXTD=
EXTT0=
EXTT1=
EXTT2=
EXTT3=
EXTT4=
EXTT5=
EXTT6=
EXTT7=
EXTT8=
EXTT9=
EXTT10=
EXTT11=
PLAYORDER=
